<?xml version="1.0" encoding="UTF-8" standalone="no"?>
<svg width="418px" height="85px" viewBox="0 0 418 85" version="1.1" xmlns="http://www.w3.org/2000/svg" xmlns:xlink="http://www.w3.org/1999/xlink" xmlns:sketch="http://www.bohemiancoding.com/sketch/ns">
    <!-- Generator: Sketch 3.2.1 (9971) - http://www.bohemiancoding.com/sketch -->
    <title>new-logo-white</title>
    <desc>Created with Sketch.</desc>
    <defs></defs>
    <g id="Page-1" stroke="none" stroke-width="1" fill="none" fill-rule="evenodd" sketch:type="MSPage">
        <g id="new-logo-white" sketch:type="MSLayerGroup" fill="#FFFFFF">
            <g id="Group" sketch:type="MSShapeGroup">
                <path d="M135.128,35.154 L135.128,39.051 C133.959,37.881 130.906,34.764 124.542,34.764 C115.383,34.764 106.68,41.713 106.68,53.924 C106.68,64.772 113.825,73.215 124.736,73.215 C132.01,73.215 134.609,69.644 135.648,68.15 L135.648,72.046 L145.91,72.046 L145.91,23.982 L135.129,23.982 L135.129,35.154 L135.128,35.154 Z M133.179,60.421 C131.492,62.109 129.088,63.149 126.49,63.149 C121.425,63.149 117.463,59.447 117.463,53.925 L117.463,53.862 C117.463,49.704 120.386,44.834 126.62,44.834 C129.153,44.834 131.428,45.742 133.051,47.366 C134.675,48.925 135.713,51.132 135.713,53.731 C135.842,56.393 134.868,58.732 133.179,60.421 L133.179,60.421 Z" id="Shape"></path>
                <path d="M168.309,45.611 L168.309,34.764 C162.073,34.764 160.189,38.077 159.15,40.026 L159.15,35.999 L149.017,35.999 L149.017,72.047 L159.798,72.047 L159.798,52.693 C159.798,47.626 162.398,45.612 167.917,45.612 L168.309,45.612 L168.309,45.611 Z" id="Shape"></path>
                <path d="M186.353,34.829 C173.232,34.829 166.932,45.157 166.932,53.925 L166.932,53.99 C166.932,62.823 173.232,73.151 186.353,73.151 C199.473,73.151 205.774,62.823 205.774,53.99 C205.774,45.157 199.473,34.829 186.353,34.829 L186.353,34.829 Z M186.353,63.083 C181.676,63.083 177.713,59.251 177.713,54.056 L177.713,53.991 C177.713,48.731 181.676,44.898 186.353,44.898 C191.028,44.898 194.991,48.731 194.991,53.991 C194.99,59.251 191.027,63.083 186.353,63.083 L186.353,63.083 Z" id="Shape"></path>
                <path d="M274.429,44.183 L274.429,44.183 L280.289,35.999 L274.429,35.999 L271.533,35.999 L246.604,35.999 L246.604,44.183 L262.803,44.183 L242.119,72.023 L247.604,72.023 L247.604,72.047 L275.836,72.047 L275.836,63.863 L260.335,63.863 L274.429,44.183 Z" id="Shape"></path>
                <path d="M294.072,34.829 C280.952,34.829 274.651,45.157 274.651,53.925 L274.651,53.99 C274.651,62.823 280.952,73.151 294.072,73.151 C307.192,73.151 313.493,62.823 313.493,53.99 C313.493,45.157 307.192,34.829 294.072,34.829 L294.072,34.829 Z M294.072,63.083 C289.394,63.083 285.433,59.251 285.433,54.056 L285.433,53.991 C285.433,48.731 289.394,44.898 294.072,44.898 C298.748,44.898 302.711,48.731 302.711,53.991 C302.711,59.251 298.748,63.083 294.072,63.083 L294.072,63.083 Z" id="Shape"></path>
                <path d="M335.713,34.765 C329.283,34.765 327.01,38.078 325.775,39.831 L325.775,35.999 L315.71,35.999 L315.71,72.047 L326.49,72.047 L326.49,52.432 C326.49,48.731 327.334,44.898 332.662,44.898 C337.468,44.898 338.312,48.406 338.312,52.368 L338.312,72.048 L349.092,72.048 L349.092,49.51 C349.093,44.638 347.86,34.765 335.713,34.765 L335.713,34.765 Z" id="Shape"></path>
                <path d="M383.547,40.481 C380.169,36.909 375.428,34.764 369.907,34.764 C358.928,34.764 351.005,44.052 351.005,54.12 C351.005,64.836 359.774,73.215 370.102,73.215 C373.803,73.215 377.377,72.111 380.364,69.969 C383.417,67.89 385.949,64.772 387.704,60.745 L376.662,60.745 C375.362,62.628 373.546,64.123 370.102,64.123 C365.879,64.123 362.242,61.59 361.788,57.757 L388.614,57.757 C389.457,51.131 388.092,45.352 383.547,40.481 L383.547,40.481 Z M361.918,49.573 C362.177,47.885 364.387,43.857 369.972,43.857 C375.557,43.857 377.765,47.884 378.026,49.573 L361.918,49.573 L361.918,49.573 Z" id="Shape"></path>
                <path d="M229.553,34.765 C224.032,34.765 220.46,37.235 218.121,39.961 L218.121,35.999 L207.988,35.999 L207.988,84.023 L218.77,84.023 L218.77,72.046 L218.77,68.798 C220.069,70.163 223.122,73.28 229.618,73.28 C239.88,73.28 247.155,64.771 247.155,54.38 C247.155,46.001 242.348,34.765 229.553,34.765 L229.553,34.765 Z M236.372,54.056 C236.372,58.603 232.995,63.213 227.344,63.213 C224.811,63.213 222.537,62.175 220.913,60.55 C219.29,58.926 218.317,56.654 218.317,54.121 C218.317,51.522 219.29,49.184 220.848,47.559 C222.474,45.871 224.744,44.832 227.343,44.832 C233.254,44.832 236.371,49.768 236.371,53.989 L236.371,54.056 L236.372,54.056 Z" id="Shape"></path>
                <path d="M36.023,12.023 C22.768,12.023 12.023,22.768 12.023,36.023 L12.023,60.023 L18.023,60.023 L36.023,60.023 C49.278,60.023 60.023,49.278 60.023,36.023 C60.023,22.768 49.278,12.023 36.023,12.023 L36.023,12.023 Z M36.023,54.023 L18.023,54.023 L18.023,36.023 C18.023,26.082 26.082,18.023 36.023,18.023 C45.964,18.023 54.023,26.082 54.023,36.023 C54.023,45.964 45.965,54.023 36.023,54.023 L36.023,54.023 Z" id="Shape"></path>
                <path d="M36.023,24.023 C29.396,24.023 24.023,29.396 24.023,36.023 L24.023,48.023 L30.023,48.023 L36.023,48.023 C42.65,48.023 48.023,42.65 48.023,36.023 C48.023,29.396 42.65,24.023 36.023,24.023 L36.023,24.023 Z M36.023,42.023 L30.023,42.023 L30.023,36.023 C30.023,32.71 32.71,30.023 36.023,30.023 C39.336,30.023 42.023,32.71 42.023,36.023 C42.023,39.336 39.337,42.023 36.023,42.023 L36.023,42.023 Z" id="Shape"></path>
                <path d="M36.023,0.023 L0.023,0.023 L0.023,72.023 L36.023,72.023 C55.905,72.023 72.023,55.905 72.023,36.023 C72.023,16.141 55.905,0.023 36.023,0.023 L36.023,0.023 Z M36.023,66.023 L6.023,66.023 L6.023,48.023 L6.023,36.023 C6.023,19.455 19.455,6.023 36.023,6.023 C52.591,6.023 66.023,19.455 66.023,36.023 C66.023,52.591 52.592,66.023 36.023,66.023 L36.023,66.023 Z" id="Shape"></path>
            </g>
            <g id="Group" transform="translate(390.000000, 36.000000)" sketch:type="MSShapeGroup">
                <path d="M12.757,11.92 C12.757,14.189 12.563,15.358 12.172,16.213 C11.781,17.042 10.952,17.895 10.172,18.359 C9.074,19.066 7.757,19.408 6.538,19.408 C6.123,19.408 1.366,19.408 0.586,14.651 C0.513,14.212 0.464,13.748 0.464,13.261 L5.366,13.261 C5.366,13.431 5.39,13.602 5.416,13.796 C5.514,14.528 5.781,15.358 6.757,15.358 C7.465,15.358 7.807,14.992 7.978,14.529 C8.147,14.041 8.147,13.481 8.147,13.066 L8.147,1.016 L12.757,1.016 L12.757,11.92 L12.757,11.92 Z" id="Shape"></path>
                <path d="M19.29,13.09 C19.29,15.188 20.582,15.554 21.168,15.554 C22.265,15.554 22.924,14.652 22.924,13.823 C22.924,12.872 22.168,12.579 19.387,11.408 C18.119,10.895 14.973,9.628 14.973,6.236 C14.973,2.603 18.265,0.676 21.289,0.676 C23.777,0.676 27.29,1.945 27.362,6.285 L22.801,6.285 C22.702,5.676 22.558,4.529 21.142,4.529 C20.337,4.529 19.557,5.091 19.557,5.943 C19.557,6.772 20.045,6.992 23.288,8.456 C26.654,9.969 27.508,11.529 27.508,13.626 C27.508,16.505 25.995,19.408 21.216,19.408 C16.485,19.408 14.581,16.627 14.702,13.09 L19.29,13.09 L19.29,13.09 Z" id="Shape"></path>
            </g>
        </g>
    </g>
</svg>