<svg width="272" height="80" viewBox="0 0 272 80" xmlns="http://www.w3.org/2000/svg" fill-rule="evenodd" clip-rule="evenodd" stroke-linejoin="round" stroke-miterlimit="2">
  <path fill="none" d="M0 0h272v80H0z"/>
  <path d="M30.029 69.223H3.127a2.45 2.45 0 01-1.73-.716 2.45 2.45 0 01-.716-1.73V12.973c0-.649.258-1.271.716-1.73a2.45 2.45 0 011.73-.716h26.902c16.198 0 29.348 13.15 29.348 29.348 0 16.197-13.15 29.347-29.348 29.348zm0-51.359c12.148 0 22.011 9.863 22.011 22.011s-9.863 22.011-22.011 22.011H10.464a2.446 2.446 0 01-2.446-2.446V39.875c0-12.148 9.863-22.011 22.011-22.011zm0 36.685c8.099 0 14.674-6.575 14.674-14.674s-6.575-14.674-14.674-14.674-14.674 6.575-14.674 14.674v12.228a2.446 2.446 0 002.446 2.446h12.228zm0-22.011a7.34 7.34 0 017.337 7.337 7.341 7.341 0 01-7.337 7.337H24.33a1.637 1.637 0 01-1.638-1.637v-5.7a7.34 7.34 0 017.337-7.337z" fill="url(#_Linear1)"/>
  <path d="M79.749 54.642s4.242 1.164 10.105 1.164c11.103 0 14.555-6.32 14.555-15.386 0-9.023-2.953-15.219-14.513-15.219-5.281 0-10.147 1.081-10.147 1.081v28.36zm10.396-23.536c5.448 0 6.862 3.742 6.862 9.356 0 5.946-1.747 9.44-6.82 9.44-1.04 0-2.079-.042-3.077-.084V31.23a36.347 36.347 0 013.035-.124zM121.541 31.937a21.417 21.417 0 00-2.786-.166c-4.117 0-7.734 1.04-9.772 1.996v21.499h7.194V38.341c.748-.291 2.329-.54 3.784-.54.541 0 .998 0 1.206.041l.374-5.905zM138.882 43.789c0 2.952-.208 6.32-3.618 6.32-3.41 0-3.659-3.368-3.659-6.32 0-2.953.249-6.363 3.659-6.363 3.41 0 3.618 3.41 3.618 6.363zm7.194 0c0-6.862-2.745-12.06-10.812-12.06-8.109 0-10.853 5.198-10.853 12.06 0 6.861 2.744 12.017 10.853 12.017 8.067 0 10.812-5.156 10.812-12.017zM164.705 43.789c0 3.493-.665 6.32-4.158 6.32-1.372 0-2.37-.249-2.661-.374V37.759c.291-.125 1.247-.333 2.661-.333 3.618 0 4.158 2.87 4.158 6.363zm7.194 0c0-7.319-2.827-12.06-11.394-12.06-5.613 0-9.813 1.996-9.813 1.996v30.19h7.194v-8.441c.873.166 1.954.332 3.202.332 7.734 0 10.811-4.699 10.811-12.017zM175.767 32.27v5.655h8.982l-9.065 11.644v5.697h18.213v-5.697h-9.356l8.899-11.56V32.27h-17.673zM211.945 43.789c0 2.952-.208 6.32-3.618 6.32-3.41 0-3.659-3.368-3.659-6.32 0-2.953.249-6.363 3.659-6.363 3.41 0 3.618 3.41 3.618 6.363zm7.194 0c0-6.862-2.745-12.06-10.812-12.06-8.109 0-10.853 5.198-10.853 12.06 0 6.861 2.744 12.017 10.853 12.017 8.067 0 10.812-5.156 10.812-12.017zM237.477 55.266h7.194V41.46c0-7.527-3.742-9.731-10.271-9.731-6.113 0-10.645 1.996-10.645 1.996v21.541h7.194V37.842s1.33-.416 3.035-.416c1.83 0 3.493.458 3.493 3.244v14.596zM268.832 45.743a19.77 19.77 0 00.499-4.325c0-5.364-2.62-9.689-9.731-9.689-7.402 0-10.604 5.198-10.604 12.018 0 8.317 4.325 12.059 11.602 12.059 4.325 0 7.568-1.247 7.568-1.247l-.873-5.281s-2.869.873-5.946.873c-3.743 0-5.115-1.996-5.157-4.408h12.642zm-6.238-4.449h-6.404c.125-2.246.832-4.076 3.368-4.076 2.787 0 3.036 1.996 3.036 4.076z" fill="#494949" fill-rule="nonzero"/>
  <defs>
    <linearGradient id="_Linear1" x1="0" y1="0" x2="1" y2="0" gradientUnits="userSpaceOnUse" gradientTransform="matrix(50.5438 48.9138 -48.9136 50.544 .681 10.527)">
      <stop offset="0" stop-color="#04f"/>
      <stop offset=".44" stop-color="#3e30ff"/>
      <stop offset="1" stop-color="#d000ff"/>
    </linearGradient>
  </defs>
</svg>
