<?xml version="1.0" encoding="UTF-8" standalone="no"?>
<svg width="73px" height="73px" viewBox="0 0 73 73" version="1.1" xmlns="http://www.w3.org/2000/svg" xmlns:xlink="http://www.w3.org/1999/xlink" xmlns:sketch="http://www.bohemiancoding.com/sketch/ns">
    <!-- Generator: Sketch 3.2.1 (9971) - http://www.bohemiancoding.com/sketch -->
    <title>new-logo-icon</title>
    <desc>Created with Sketch.</desc>
    <defs></defs>
    <g id="Page-1" stroke="none" stroke-width="1" fill="none" fill-rule="evenodd" sketch:type="MSPage">
        <g id="new-logo-icon" sketch:type="MSLayerGroup" fill="#FFFFFF">
            <g id="Group-2" sketch:type="MSShapeGroup">
                <path d="M36.023,12.023 C22.768,12.023 12.023,22.768 12.023,36.023 L12.023,60.023 L18.023,60.023 L36.023,60.023 C49.278,60.023 60.023,49.278 60.023,36.023 C60.023,22.768 49.278,12.023 36.023,12.023 L36.023,12.023 Z M36.023,54.023 L18.023,54.023 L18.023,36.023 C18.023,26.082 26.082,18.023 36.023,18.023 C45.964,18.023 54.023,26.082 54.023,36.023 C54.023,45.964 45.965,54.023 36.023,54.023 L36.023,54.023 Z" id="Shape"></path>
                <path d="M36.023,24.023 C29.396,24.023 24.023,29.396 24.023,36.023 L24.023,48.023 L30.023,48.023 L36.023,48.023 C42.65,48.023 48.023,42.65 48.023,36.023 C48.023,29.396 42.65,24.023 36.023,24.023 L36.023,24.023 Z M36.023,42.023 L30.023,42.023 L30.023,36.023 C30.023,32.71 32.71,30.023 36.023,30.023 C39.336,30.023 42.023,32.71 42.023,36.023 C42.023,39.336 39.337,42.023 36.023,42.023 L36.023,42.023 Z" id="Shape"></path>
                <path d="M36.023,0.023 L0.023,0.023 L0.023,72.023 L36.023,72.023 C55.905,72.023 72.023,55.905 72.023,36.023 C72.023,16.141 55.905,0.023 36.023,0.023 L36.023,0.023 Z M36.023,66.023 L6.023,66.023 L6.023,48.023 L6.023,36.023 C6.023,19.455 19.455,6.023 36.023,6.023 C52.591,6.023 66.023,19.455 66.023,36.023 C66.023,52.591 52.592,66.023 36.023,66.023 L36.023,66.023 Z" id="Shape"></path>
            </g>
        </g>
    </g>
</svg>